<?xml version="1.0" encoding="UTF-8" standalone="no"?>
<svg
   width="164"
   height="164"
   viewBox="0 0 43.391666 43.391669"
   version="1.1"
   id="svg8"
   inkscape:version="1.1.1 (3bf5ae0d25, 2021-09-20, custom)"
   sodipodi:docname="discord.svg"
   inkscape:export-filename="/home/pavel/pix/inkscape/discord-logo-vt.png"
   inkscape:export-xdpi="96"
   inkscape:export-ydpi="96"
   xmlns:inkscape="http://www.inkscape.org/namespaces/inkscape"
   xmlns:sodipodi="http://sodipodi.sourceforge.net/DTD/sodipodi-0.dtd"
   xmlns:xlink="http://www.w3.org/1999/xlink"
   xmlns="http://www.w3.org/2000/svg"
   xmlns:svg="http://www.w3.org/2000/svg"
   xmlns:rdf="http://www.w3.org/1999/02/22-rdf-syntax-ns#"
   xmlns:cc="http://creativecommons.org/ns#"
   xmlns:dc="http://purl.org/dc/elements/1.1/">
  <defs
     id="defs2">
    <linearGradient
       inkscape:collect="always"
       id="linearGradient1832">
      <stop
         style="stop-color:#ff3399;stop-opacity:1"
         offset="0"
         id="stop1828" />
      <stop
         style="stop-color:#3333ff;stop-opacity:1"
         offset="1"
         id="stop1830" />
    </linearGradient>
    <linearGradient
       inkscape:collect="always"
       id="linearGradient26463">
      <stop
         style="stop-color:#ff3399;stop-opacity:1"
         offset="0"
         id="stop26459" />
      <stop
         style="stop-color:#3333ff;stop-opacity:1"
         offset="1"
         id="stop26461" />
    </linearGradient>
    <linearGradient
       inkscape:collect="always"
       xlink:href="#linearGradient26463"
       id="linearGradient26465"
       x1="49.113579"
       y1="140.00294"
       x2="81.061424"
       y2="116.38868"
       gradientUnits="userSpaceOnUse"
       gradientTransform="translate(2.48e-6)" />
    <linearGradient
       inkscape:collect="always"
       xlink:href="#linearGradient1832"
       id="linearGradient1834"
       x1="43.39167"
       y1="149.89165"
       x2="86.78334"
       y2="106.49998"
       gradientUnits="userSpaceOnUse"
       gradientTransform="matrix(0.9695121,0,0,0.969512,1.9843809,3.9084361)" />
  </defs>
  <sodipodi:namedview
     id="base"
     pagecolor="#404040"
     bordercolor="#666666"
     borderopacity="1.0"
     inkscape:pageopacity="0"
     inkscape:pageshadow="2"
     inkscape:zoom="1.4142136"
     inkscape:cx="155.91704"
     inkscape:cy="37.476658"
     inkscape:document-units="px"
     inkscape:current-layer="layer1"
     showgrid="false"
     showborder="false"
     units="px"
     inkscape:window-width="1920"
     inkscape:window-height="1061"
     inkscape:window-x="0"
     inkscape:window-y="0"
     inkscape:window-maximized="1"
     inkscape:document-rotation="0"
     inkscape:pagecheckerboard="0"
     inkscape:snap-others="true"
     inkscape:snap-bbox="true"
     inkscape:bbox-nodes="true" />
  <metadata
     id="metadata5">
    <rdf:RDF>
      <cc:Work
         rdf:about="">
        <dc:format>image/svg+xml</dc:format>
        <dc:type
           rdf:resource="http://purl.org/dc/dcmitype/StillImage" />
      </cc:Work>
    </rdf:RDF>
  </metadata>
  <g
     inkscape:label="Layer 1"
     inkscape:groupmode="layer"
     id="layer1"
     transform="translate(0,-106.49998)">
    <g
       id="g11064"
       transform="translate(-43.391669)">
      <path
         id="path26357"
         style="fill:#000000;fill-opacity:1;stroke:url(#linearGradient1834);stroke-width:1.32292;stroke-linecap:round;stroke-linejoin:round;stroke-miterlimit:4;stroke-dasharray:none;paint-order:normal;stop-color:#000000"
         d="m 53.639441,107.16144 c -5.310577,0 -9.586312,4.27523 -9.586312,9.58581 v 22.89712 c 0,5.31058 4.275735,9.58582 9.586312,9.58582 h 22.896625 c 5.310575,0 9.585814,-4.27524 9.585814,-9.58582 v -22.89712 c 0,-5.31058 -4.275239,-9.58581 -9.585814,-9.58581 z" />
      <path
         d="m 76.634493,119.00622 c -2.765567,-2.22315 -7.138939,-2.59956 -7.324376,-2.61484 -0.291697,-0.0262 -0.56881,0.14017 -0.688961,0.40768 -0.0084,0.0184 -0.104185,0.23624 -0.210442,0.57854 1.828662,0.30766 4.074729,0.92994 6.107578,2.1912 0.32573,0.20211 0.42574,0.6299 0.223646,0.95634 -0.131274,0.21183 -0.35837,0.32852 -0.591032,0.32852 -0.125027,0 -0.251418,-0.0333 -0.365317,-0.10421 -3.493419,-2.1669 -7.858457,-2.27665 -8.69813,-2.27665 -0.83967,0 -5.205404,0.10973 -8.697434,2.27665 -0.326423,0.2029 -0.754245,0.1021 -0.95635,-0.22365 -0.202803,-0.32642 -0.102084,-0.75426 0.223646,-0.95635 2.03285,-1.26055 4.278223,-1.88353 6.107582,-2.1912 -0.106967,-0.3424 -0.202804,-0.56116 -0.210442,-0.57854 -0.120144,-0.26808 -0.396569,-0.43684 -0.689655,-0.40767 -0.184744,0.0158 -4.558116,0.39101 -7.360492,2.64541 -1.464735,1.35222 -4.390735,9.26417 -4.390735,16.10376 0,0.12075 0.03125,0.23886 0.09098,0.34378 2.02035,3.5483 7.529952,4.47756 8.784946,4.51714 0.0076,7.1e-4 0.0147,7.1e-4 0.02232,7.1e-4 0.221546,0 0.430601,-0.10552 0.561864,-0.28546 l 1.270272,-1.7453 c -3.426053,-0.88621 -5.176236,-2.38847 -5.27694,-2.47806 -0.287531,-0.25356 -0.314614,-0.69243 -0.06043,-0.97997 0.253491,-0.28751 0.691047,-0.31459 0.979271,-0.0617 0.04236,0.0376 3.264228,2.77249 9.601694,2.77249 6.34858,0 9.571833,-2.7454 9.603781,-2.7732 0.287529,-0.24937 0.725769,-0.22443 0.978575,0.0653 0.252808,0.28754 0.225719,0.72438 -0.06111,0.97719 -0.101402,0.0895 -1.851582,1.59184 -5.277632,2.47806 l 1.270269,1.74529 c 0.131274,0.17982 0.340315,0.28547 0.561865,0.28547 0.0076,0 0.0147,0 0.02152,-7.1e-4 1.256383,-0.0396 6.765291,-0.96884 8.784945,-4.51714 0.06043,-0.10474 0.09166,-0.22286 0.09166,-0.34378 0,-6.83959 -2.925998,-14.75154 -4.42685,-16.13503 z m -16.061396,13.35695 c -1.342503,0 -2.430811,-1.24388 -2.430811,-2.77805 0,-1.53421 1.088308,-2.77809 2.430811,-2.77809 1.3425,0 2.430807,1.24388 2.430807,2.77809 0,1.53417 -1.088307,2.77805 -2.430807,2.77805 z m 9.028717,0 c -1.342502,0 -2.430809,-1.24388 -2.430809,-2.77805 0,-1.53421 1.088307,-2.77809 2.430809,-2.77809 1.342502,0 2.43081,1.24388 2.43081,2.77809 0,1.53417 -1.088308,2.77805 -2.43081,2.77805 z"
         id="path26359"
         style="fill:url(#linearGradient26465);fill-opacity:1;stroke-width:0.264583" />
    </g>
  </g>
</svg>
