<?xml version="1.0" encoding="UTF-8" standalone="no"?>
<svg
   width="164"
   height="164"
   viewBox="0 0 43.391666 43.391669"
   version="1.1"
   id="svg8"
   inkscape:version="1.1.1 (3bf5ae0d25, 2021-09-20, custom)"
   sodipodi:docname="ig.svg"
   inkscape:export-filename="/home/pavel/pix/inkscape/instagram-logo-vt.png"
   inkscape:export-xdpi="96"
   inkscape:export-ydpi="96"
   xmlns:inkscape="http://www.inkscape.org/namespaces/inkscape"
   xmlns:sodipodi="http://sodipodi.sourceforge.net/DTD/sodipodi-0.dtd"
   xmlns:xlink="http://www.w3.org/1999/xlink"
   xmlns="http://www.w3.org/2000/svg"
   xmlns:svg="http://www.w3.org/2000/svg"
   xmlns:rdf="http://www.w3.org/1999/02/22-rdf-syntax-ns#"
   xmlns:cc="http://creativecommons.org/ns#"
   xmlns:dc="http://purl.org/dc/elements/1.1/">
  <defs
     id="defs2">
    <linearGradient
       inkscape:collect="always"
       id="linearGradient5383">
      <stop
         style="stop-color:#3333ff;stop-opacity:1"
         offset="0"
         id="stop5379" />
      <stop
         style="stop-color:#ff3399;stop-opacity:1"
         offset="1"
         id="stop5381" />
    </linearGradient>
    <linearGradient
       inkscape:collect="always"
       xlink:href="#linearGradient5383"
       id="linearGradient6083"
       gradientUnits="userSpaceOnUse"
       gradientTransform="translate(43.391728,7.338e-5)"
       x1="40.89455"
       y1="108.99712"
       x2="2.4971812"
       y2="147.3945" />
  </defs>
  <sodipodi:namedview
     id="base"
     pagecolor="#404040"
     bordercolor="#666666"
     borderopacity="1.0"
     inkscape:pageopacity="0"
     inkscape:pageshadow="2"
     inkscape:zoom="1.5677883"
     inkscape:cx="153.40081"
     inkscape:cy="31.892061"
     inkscape:document-units="px"
     inkscape:current-layer="layer1"
     showgrid="false"
     showborder="false"
     units="px"
     inkscape:window-width="1920"
     inkscape:window-height="1061"
     inkscape:window-x="0"
     inkscape:window-y="0"
     inkscape:window-maximized="1"
     inkscape:document-rotation="0"
     inkscape:pagecheckerboard="false"
     inkscape:snap-others="true"
     inkscape:snap-bbox="true"
     inkscape:bbox-nodes="true" />
  <metadata
     id="metadata5">
    <rdf:RDF>
      <cc:Work
         rdf:about="">
        <dc:format>image/svg+xml</dc:format>
        <dc:type
           rdf:resource="http://purl.org/dc/dcmitype/StillImage" />
      </cc:Work>
    </rdf:RDF>
  </metadata>
  <g
     inkscape:label="Layer 1"
     inkscape:groupmode="layer"
     id="layer1"
     transform="translate(0,-106.49998)">
    <g
       id="g7522"
       transform="translate(-43.391668)">
      <path
         id="rect4432-3"
         style="fill:#000000;fill-opacity:1;stroke:none;stroke-width:1.32292;stroke-linecap:round;stroke-linejoin:round;stop-color:#000000"
         d="m 53.27892,106.49998 c -5.477577,0 -9.887252,4.40967 -9.887252,9.88725 v 23.61717 c 0,5.47757 4.409675,9.88725 9.887252,9.88725 h 23.617164 c 5.477576,0 9.887252,-4.40968 9.887252,-9.88725 v -23.61717 c 0,-5.47758 -4.409676,-9.88725 -9.887252,-9.88725 z" />
      <path
         id="rect6077"
         style="fill:url(#linearGradient6083);fill-opacity:1;stroke:none;stroke-width:1.32292;stroke-linecap:round;stroke-linejoin:round;stop-color:#000000"
         d="m 59.302842,111.84358 c -5.854622,0 -10.567314,4.71321 -10.567314,10.56783 v 11.56881 c 0,5.85462 4.712692,10.56783 10.567314,10.56783 h 11.568804 c 5.854621,0 10.567829,-4.71321 10.567829,-10.56783 v -11.56881 c 0,-5.85462 -4.713208,-10.56783 -10.567829,-10.56783 z m -0.05271,3.09594 h 11.67474 c 4.109763,0 7.418669,3.30891 7.418669,7.41867 v 11.67525 c 0,4.10976 -3.308906,7.41816 -7.418669,7.41816 h -11.67474 c -4.109764,0 -7.418152,-3.3084 -7.418152,-7.41816 v -11.67525 c 0,-4.10976 3.308388,-7.41867 7.418152,-7.41867 z m 14.334525,2.93315 a 1.8227557,1.8227557 0 0 0 -1.822627,1.82315 1.8227557,1.8227557 0 0 0 1.822627,1.82211 1.8227557,1.8227557 0 0 0 1.82263,-1.82211 1.8227557,1.8227557 0 0 0 -1.82263,-1.82315 z m -8.414988,2.34715 a 8.0401014,8.0401014 0 0 0 -8.039821,8.04033 8.0401014,8.0401014 0 0 0 8.039821,8.03982 8.0401014,8.0401014 0 0 0 8.040336,-8.03982 8.0401014,8.0401014 0 0 0 -8.040336,-8.04033 z m 0,2.7466 a 5.2934832,5.2934832 0 0 1 5.293733,5.29373 5.2934832,5.2934832 0 0 1 -5.293733,5.29322 5.2934832,5.2934832 0 0 1 -5.293218,-5.29322 5.2934832,5.2934832 0 0 1 5.293218,-5.29373 z" />
    </g>
  </g>
</svg>
