<?xml version="1.0" encoding="UTF-8" standalone="no"?>
<svg
   width="164"
   height="164"
   viewBox="0 0 43.391666 43.391669"
   version="1.1"
   id="svg8"
   inkscape:version="1.1.1 (3bf5ae0d25, 2021-09-20, custom)"
   sodipodi:docname="paypal.svg"
   inkscape:export-filename="/home/pavel/pix/inkscape/paypal-logo-vt.png"
   inkscape:export-xdpi="96"
   inkscape:export-ydpi="96"
   xmlns:inkscape="http://www.inkscape.org/namespaces/inkscape"
   xmlns:sodipodi="http://sodipodi.sourceforge.net/DTD/sodipodi-0.dtd"
   xmlns:xlink="http://www.w3.org/1999/xlink"
   xmlns="http://www.w3.org/2000/svg"
   xmlns:svg="http://www.w3.org/2000/svg"
   xmlns:rdf="http://www.w3.org/1999/02/22-rdf-syntax-ns#"
   xmlns:cc="http://creativecommons.org/ns#"
   xmlns:dc="http://purl.org/dc/elements/1.1/">
  <defs
     id="defs2">
    <linearGradient
       inkscape:collect="always"
       id="linearGradient7827">
      <stop
         style="stop-color:#3333ff;stop-opacity:1"
         offset="0"
         id="stop7823" />
      <stop
         style="stop-color:#ff3399;stop-opacity:1"
         offset="1"
         id="stop7825" />
    </linearGradient>
    <linearGradient
       inkscape:collect="always"
       xlink:href="#linearGradient1832"
       id="linearGradient1834"
       x1="43.39167"
       y1="149.89165"
       x2="86.78334"
       y2="106.49998"
       gradientUnits="userSpaceOnUse"
       gradientTransform="matrix(0.9695121,0,0,0.969512,-41.407288,3.90844)" />
    <linearGradient
       inkscape:collect="always"
       id="linearGradient1832">
      <stop
         style="stop-color:#ff3399;stop-opacity:1"
         offset="0"
         id="stop1828" />
      <stop
         style="stop-color:#3333ff;stop-opacity:1"
         offset="1"
         id="stop1830" />
    </linearGradient>
    <linearGradient
       inkscape:collect="always"
       xlink:href="#linearGradient7827"
       id="linearGradient7829"
       x1="47.855782"
       y1="2"
       x2="2.2445731"
       y2="48"
       gradientUnits="userSpaceOnUse" />
    <linearGradient
       inkscape:collect="always"
       xlink:href="#linearGradient7827"
       id="linearGradient8810"
       gradientUnits="userSpaceOnUse"
       x1="47.855782"
       y1="2"
       x2="2.2445731"
       y2="48" />
  </defs>
  <sodipodi:namedview
     id="base"
     pagecolor="#404040"
     bordercolor="#666666"
     borderopacity="1.0"
     inkscape:pageopacity="0"
     inkscape:pageshadow="2"
     inkscape:zoom="1.4142136"
     inkscape:cx="-8.8388345"
     inkscape:cy="48.790367"
     inkscape:document-units="px"
     inkscape:current-layer="layer1"
     showgrid="false"
     showborder="false"
     units="px"
     inkscape:window-width="1920"
     inkscape:window-height="1061"
     inkscape:window-x="0"
     inkscape:window-y="0"
     inkscape:window-maximized="1"
     inkscape:document-rotation="0"
     inkscape:pagecheckerboard="0"
     inkscape:snap-others="true"
     inkscape:snap-bbox="true"
     inkscape:object-nodes="false"
     inkscape:bbox-nodes="true" />
  <metadata
     id="metadata5">
    <rdf:RDF>
      <cc:Work
         rdf:about="">
        <dc:format>image/svg+xml</dc:format>
        <dc:type
           rdf:resource="http://purl.org/dc/dcmitype/StillImage" />
      </cc:Work>
    </rdf:RDF>
  </metadata>
  <g
     inkscape:label="Layer 1"
     inkscape:groupmode="layer"
     id="layer1"
     transform="translate(0,-106.49998)">
    <g
       id="g10854">
      <path
         id="path26357"
         style="fill:#000000;fill-opacity:1;stroke:url(#linearGradient1834);stroke-width:1.32292;stroke-linecap:round;stroke-linejoin:round;stroke-miterlimit:4;stroke-dasharray:none;paint-order:normal;stop-color:#000000"
         d="m 10.247772,107.16144 c -5.310577,0 -9.58631202,4.27523 -9.58631202,9.58581 v 22.89712 c 0,5.31058 4.27573502,9.58582 9.58631202,9.58582 h 22.896625 c 5.310575,0 9.585814,-4.27524 9.585814,-9.58582 v -22.89712 c 0,-5.31058 -4.275239,-9.58581 -9.585814,-9.58581 z" />
      <g
         style="fill:url(#linearGradient7829);fill-opacity:1;stroke-width:0.457223"
         id="g6075"
         transform="matrix(0.57867509,0,0,0.57867509,7.1999223,113.72894)">
        <path
           d="m 11.40625,2 c -1,0 -1.894531,0.6875 -2.09375,1.6875 0,0 -5.898437,27.007813 -7,32.40625 -0.199219,1.101563 0.074219,1.695313 0.375,2.09375 C 3.085938,38.6875 3.699219,39 4.5,39 H 12 L 17.90625,11.8125 C 18.105469,10.8125 19.011719,9 21.8125,9 H 38 C 36.601563,4.398438 32.105469,2 27.90625,2 Z M 22,11.09375 l -1.59375,0.3125 c -0.300781,0.199219 -0.492187,0.605469 -0.59375,0.90625 L 17.40625,23.5 c 0.699219,-0.300781 1.386719,-0.40625 2.1875,-0.40625 h 7.21875 c 6.398438,0 9.988281,-2.585937 11.1875,-8.1875 0.199219,-1 0.3125,-1.792969 0.3125,-2.59375 l -0.125,-1.125 V 11.09375 Z M 40.09375,11.3125 40.1875,12 c 0.101563,1 -0.08203,1.894531 -0.28125,3.09375 -1.398437,6.5 -5.917969,9.8125 -13.21875,9.8125 H 19.5 c -1.601562,0 -2.699219,0.699219 -3,2 -0.398437,1.800781 -3.898437,18.292969 -4,18.59375 -0.101562,0.5 0.0078,1.1875 0.40625,1.6875 C 13.207031,47.585938 13.6875,48 14.6875,48 h 8 c 1,0 1.925781,-0.710937 2.125,-1.8125 C 25.710938,42.386719 26.898438,36.613281 27,36.3125 27,36.210938 27.09375,36 27.09375,36 h 5.3125 C 40.207031,36 46.101563,31.3125 47.5,23.8125 c 1,-4.601562 -0.292969,-7.523437 -1.59375,-9.125 -1.800781,-2.300781 -5.113281,-3.375 -5.8125,-3.375 z"
           id="path6066"
           style="fill:url(#linearGradient8810);fill-opacity:1;stroke-width:0.457223" />
      </g>
    </g>
  </g>
</svg>
