<?xml version="1.0" encoding="UTF-8" standalone="no"?>
<svg
   width="164"
   height="164"
   viewBox="0 0 43.391666 43.391669"
   version="1.1"
   id="svg8"
   inkscape:version="1.1.1 (3bf5ae0d25, 2021-09-20, custom)"
   sodipodi:docname="youtube.svg"
   inkscape:export-filename="/home/pavel/pix/inkscape/youtube-logo-vt.png"
   inkscape:export-xdpi="96"
   inkscape:export-ydpi="96"
   xmlns:inkscape="http://www.inkscape.org/namespaces/inkscape"
   xmlns:sodipodi="http://sodipodi.sourceforge.net/DTD/sodipodi-0.dtd"
   xmlns:xlink="http://www.w3.org/1999/xlink"
   xmlns="http://www.w3.org/2000/svg"
   xmlns:svg="http://www.w3.org/2000/svg"
   xmlns:rdf="http://www.w3.org/1999/02/22-rdf-syntax-ns#"
   xmlns:cc="http://creativecommons.org/ns#"
   xmlns:dc="http://purl.org/dc/elements/1.1/">
  <defs
     id="defs2">
    <linearGradient
       inkscape:collect="always"
       id="linearGradient11607">
      <stop
         style="stop-color:#ff3399;stop-opacity:1"
         offset="0"
         id="stop11603" />
      <stop
         style="stop-color:#3333ff;stop-opacity:1"
         offset="1"
         id="stop11605" />
    </linearGradient>
    <linearGradient
       inkscape:collect="always"
       xlink:href="#linearGradient1832"
       id="linearGradient1834"
       x1="43.39167"
       y1="149.89165"
       x2="86.78334"
       y2="106.49998"
       gradientUnits="userSpaceOnUse"
       gradientTransform="matrix(0.9695121,0,0,0.969512,-41.407288,3.9084361)" />
    <linearGradient
       inkscape:collect="always"
       id="linearGradient1832">
      <stop
         style="stop-color:#ff3399;stop-opacity:1"
         offset="0"
         id="stop1828" />
      <stop
         style="stop-color:#3333ff;stop-opacity:1"
         offset="1"
         id="stop1830" />
    </linearGradient>
    <linearGradient
       inkscape:collect="always"
       xlink:href="#linearGradient11607"
       id="linearGradient11409"
       x1="3"
       y1="41"
       x2="46.101562"
       y2="9.0707264"
       gradientUnits="userSpaceOnUse" />
    <linearGradient
       inkscape:collect="always"
       xlink:href="#linearGradient11607"
       id="linearGradient12471"
       gradientUnits="userSpaceOnUse"
       x1="3"
       y1="41"
       x2="46.101562"
       y2="9.0707264" />
  </defs>
  <sodipodi:namedview
     id="base"
     pagecolor="#404040"
     bordercolor="#666666"
     borderopacity="1.0"
     inkscape:pageopacity="0"
     inkscape:pageshadow="2"
     inkscape:zoom="2.8284272"
     inkscape:cx="102.3537"
     inkscape:cy="66.821589"
     inkscape:document-units="px"
     inkscape:current-layer="layer1"
     showgrid="false"
     showborder="false"
     units="px"
     inkscape:window-width="1920"
     inkscape:window-height="1061"
     inkscape:window-x="0"
     inkscape:window-y="0"
     inkscape:window-maximized="1"
     inkscape:document-rotation="0"
     inkscape:pagecheckerboard="0"
     inkscape:snap-others="true"
     inkscape:snap-bbox="true"
     inkscape:bbox-nodes="true"
     inkscape:object-nodes="false" />
  <metadata
     id="metadata5">
    <rdf:RDF>
      <cc:Work
         rdf:about="">
        <dc:format>image/svg+xml</dc:format>
        <dc:type
           rdf:resource="http://purl.org/dc/dcmitype/StillImage" />
      </cc:Work>
    </rdf:RDF>
  </metadata>
  <g
     inkscape:label="Layer 1"
     inkscape:groupmode="layer"
     id="layer1"
     transform="translate(0,-106.49998)">
    <g
       id="g12476">
      <path
         id="path26357"
         style="fill:#000000;fill-opacity:1;stroke:url(#linearGradient1834);stroke-width:1.32292;stroke-linecap:round;stroke-linejoin:round;stroke-miterlimit:4;stroke-dasharray:none;paint-order:normal;stop-color:#000000"
         d="m 10.247772,107.16144 c -5.310577,0 -9.586312,4.27523 -9.586312,9.58581 v 22.89712 c 0,5.31058 4.275735,9.58582 9.586312,9.58582 h 22.896625 c 5.310575,0 9.585814,-4.27524 9.585814,-9.58582 v -22.89712 c 0,-5.31058 -4.275239,-9.58581 -9.585814,-9.58581 z" />
      <g
         style="fill:url(#linearGradient11409);fill-opacity:1;stroke-width:0.356955"
         id="g11340"
         transform="matrix(0.74122252,0,0,0.74122252,3.4982434,109.66525)">
        <path
           d="M 44.898438,14.5 C 44.5,12.300781 42.601563,10.699219 40.398438,10.199219 37.101563,9.5 31,9 24.398438,9 17.800781,9 11.601563,9.5 8.300781,10.199219 c -2.199218,0.5 -4.101562,2 -4.5,4.300781 C 3.398438,17 3,20.5 3,25 c 0,4.5 0.398438,8 0.898438,10.5 0.402343,2.199219 2.300781,3.800781 4.5,4.300781 C 11.898438,40.5 17.898438,41 24.5,41 c 6.601563,0 12.601563,-0.5 16.101563,-1.199219 2.199218,-0.5 4.097656,-2 4.5,-4.300781 C 45.5,33 46,29.398438 46.101563,25 45.898438,20.5 45.398438,17 44.898438,14.5 Z M 19,32 V 18 l 12.199219,7 z"
           id="path11331"
           style="fill:url(#linearGradient12471);fill-opacity:1;stroke-width:0.356955" />
      </g>
    </g>
  </g>
</svg>
