<?xml version="1.0" encoding="UTF-8" standalone="no"?>
<svg
   width="164"
   height="164"
   viewBox="0 0 43.391666 43.391669"
   version="1.1"
   id="svg8"
   inkscape:version="1.1.1 (3bf5ae0d25, 2021-09-20, custom)"
   sodipodi:docname="rdawn-logo-vt.svg"
   inkscape:export-filename="/home/pavel/pix/inkscape/rdawn-logo-vt.png"
   inkscape:export-xdpi="96"
   inkscape:export-ydpi="96"
   xmlns:inkscape="http://www.inkscape.org/namespaces/inkscape"
   xmlns:sodipodi="http://sodipodi.sourceforge.net/DTD/sodipodi-0.dtd"
   xmlns:xlink="http://www.w3.org/1999/xlink"
   xmlns="http://www.w3.org/2000/svg"
   xmlns:svg="http://www.w3.org/2000/svg"
   xmlns:rdf="http://www.w3.org/1999/02/22-rdf-syntax-ns#"
   xmlns:cc="http://creativecommons.org/ns#"
   xmlns:dc="http://purl.org/dc/elements/1.1/">
  <defs
     id="defs2">
    <linearGradient
       inkscape:collect="always"
       id="linearGradient3192">
      <stop
         style="stop-color:#3333ff;stop-opacity:1"
         offset="0"
         id="stop3188" />
      <stop
         style="stop-color:#ff3399;stop-opacity:1"
         offset="1"
         id="stop3190" />
    </linearGradient>
    <linearGradient
       inkscape:collect="always"
       id="linearGradient2001">
      <stop
         style="stop-color:#ff3399;stop-opacity:1"
         offset="0"
         id="stop1997" />
      <stop
         style="stop-color:#3333ff;stop-opacity:1"
         offset="1"
         id="stop1999" />
    </linearGradient>
    <linearGradient
       inkscape:collect="always"
       xlink:href="#linearGradient2001"
       id="linearGradient2003"
       x1="-0.66145837"
       y1="150.55312"
       x2="44.053127"
       y2="105.83852"
       gradientUnits="userSpaceOnUse"
       gradientTransform="matrix(0.96951218,0,0,0.96951218,0.66145852,3.9084123)" />
    <linearGradient
       inkscape:collect="always"
       xlink:href="#linearGradient3192"
       id="linearGradient3194"
       x1="82.897621"
       y1="110.6339"
       x2="47.503162"
       y2="143.33812"
       gradientUnits="userSpaceOnUse"
       gradientTransform="matrix(0.79816757,0,0,0.79816757,-30.345004,26.8397)" />
  </defs>
  <sodipodi:namedview
     id="base"
     pagecolor="#404040"
     bordercolor="#666666"
     borderopacity="1.0"
     inkscape:pageopacity="0"
     inkscape:pageshadow="2"
     inkscape:zoom="2.8284272"
     inkscape:cx="100.58594"
     inkscape:cy="85.559919"
     inkscape:document-units="px"
     inkscape:current-layer="layer1"
     showgrid="false"
     showborder="false"
     units="px"
     inkscape:window-width="1920"
     inkscape:window-height="1061"
     inkscape:window-x="0"
     inkscape:window-y="0"
     inkscape:window-maximized="1"
     inkscape:document-rotation="0"
     inkscape:pagecheckerboard="0"
     inkscape:snap-others="true"
     inkscape:snap-bbox="true"
     inkscape:bbox-paths="false"
     inkscape:bbox-nodes="true" />
  <metadata
     id="metadata5">
    <rdf:RDF>
      <cc:Work
         rdf:about="">
        <dc:format>image/svg+xml</dc:format>
        <dc:type
           rdf:resource="http://purl.org/dc/dcmitype/StillImage" />
      </cc:Work>
    </rdf:RDF>
  </metadata>
  <g
     inkscape:label="Layer 1"
     inkscape:groupmode="layer"
     id="layer1"
     transform="translate(0,-106.49998)">
    <g
       id="g4074">
      <path
         id="rect4432-3"
         style="fill:#000000;fill-opacity:1;stroke:url(#linearGradient2003);stroke-width:1.32292;stroke-linecap:round;stroke-linejoin:round;stroke-miterlimit:4;stroke-dasharray:none;stop-color:#000000"
         d="m 10.24727,107.16144 c -5.3105779,0 -9.58581148,4.27523 -9.58581148,9.58581 v 22.89713 c 0,5.31057 4.27523358,9.58581 9.58581148,9.58581 h 22.897128 c 5.310577,0 9.585812,-4.27524 9.585812,-9.58581 v -22.89713 c 0,-5.31058 -4.275235,-9.58581 -9.585812,-9.58581 z" />
      <path
         d="m 29.436355,115.14819 c -0.775502,0.0301 -1.443265,0.26553 -1.926771,0.6897 -0.10058,0.0886 -0.187365,0.18792 -0.268159,0.29023 -1.504055,-0.12941 -4.029901,-0.0149 -5.545255,1.87931 0,0 1.441646,-0.47401 5.189918,0.32886 0.0023,0.0107 0.0056,0.0239 0.0077,0.0353 -2.302412,0.17789 -4.146726,0.84494 -4.632635,1.33084 l 5.217508,0.21851 c 0.09887,0.1576 0.21218,0.30904 0.340991,0.44804 0.408502,0.44014 0.118839,1.37144 -0.267055,1.75903 -0.150849,0.14009 -0.906123,0.42662 -1.512945,0.6577 -1.398961,0.5328 -3.138414,1.19663 -4.105144,2.16844 -1.670166,1.68036 -7.058732,7.63804 -7.318635,7.92449 1.453203,-0.35765 3.970099,-1.04772 5.070737,-1.78111 0.200008,-0.13326 0.4645,-0.12706 0.656603,0.0192 0.19153,0.14692 0.268855,0.3991 0.192021,0.62791 -0.02317,0.0707 -0.03028,0.1181 -0.0331,0.14565 0.270639,0.1294 1.277441,-0.006 2.144166,-0.29466 0.0599,-0.0171 2.203773,-0.59372 4.863272,-3.25321 0.220919,-0.22091 0.578041,-0.22091 0.798959,0 0.220919,0.22091 0.220919,0.57694 0,0.79785 -2.902453,2.90244 -5.248847,3.51475 -5.347724,3.53903 -0.709652,0.23958 -2.537738,0.74308 -3.284116,-0.004 -0.04971,-0.0497 -0.106411,-0.11724 -0.156701,-0.20309 -1.669603,0.78763 -4.288917,1.43124 -5.323448,1.66853 l -4.5531789,3.7465 c -1.1028983,0.69779 -2.3352028,1.7078 -2.0238815,2.59883 0.2073543,0.5927 0.9240896,0.76144 1.7766883,0.76144 0.3853369,0 0.7977151,-0.0342 1.2039561,-0.0794 4.722348,-0.52829 7.541073,-3.38091 8.126422,-4.0301 l 3.10424,-1.04063 c 0.04367,0.004 0.08664,0.006 0.130221,0.0107 l 1.226026,3.45517 c -0.620211,0.20585 -1.700544,0.51865 -1.700544,0.51865 a 0.56506575,0.56506575 0 0 0 -0.05187,0.022 0.56506575,0.56506575 0 0 0 -0.04856,0.0287 0.56506575,0.56506575 0 0 0 -0.16221,0.15567 0.56506575,0.56506575 0 0 0 -0.02979,0.0474 0.56506575,0.56506575 0 0 0 -0.05849,0.15888 0.56506575,0.56506575 0 0 0 -0.01217,0.11147 0.56506575,0.56506575 0 0 0 0.0034,0.0575 0.56506575,0.56506575 0 0 0 0.02093,0.1104 0.56506575,0.56506575 0 0 0 0.01986,0.0529 0.56506575,0.56506575 0 0 0 0.05298,0.0993 0.56506575,0.56506575 0 0 0 0.261537,0.20864 0.56506575,0.56506575 0 0 0 0.164432,0.0376 0.56506575,0.56506575 0 0 0 0.259331,-0.0418 c 0,0 2.633141,-1.05235 5.826656,0.0129 a 0.56532824,0.56532824 0 1 0 0.357546,-1.07262 c -0.354247,-0.11809 -0.664545,-0.12386 -1.005321,-0.1986 1.255297,-0.14329 2.503014,-0.18195 3.472822,0.14115 a 0.56532824,0.56532824 0 1 0 0.357544,-1.07262 c -1.120305,-0.37339 -2.372256,-0.37098 -3.614098,-0.25047 l -1.092499,-2.8085 c 2.772631,-0.62815 5.141639,-2.20326 6.70838,-4.56754 1.865096,-2.81317 2.24556,-6.30644 2.321834,-7.65851 h 0.01773 c 0.166118,0 0.323564,-0.072 0.431482,-0.1986 0.10735,-0.12663 0.152365,-0.29412 0.1258,-0.45797 -0.444662,-2.68209 -1.555374,-4.6714 -2.075747,-5.48897 l 0.233949,-0.23505 c 0.126569,-0.12706 0.184931,-0.30594 0.157811,-0.48334 -0.02712,-0.17745 -0.136435,-0.33132 -0.294643,-0.41494 -0.07457,-0.0391 -1.838266,-0.96301 -3.589795,-1.19071 -0.279679,-0.0363 -0.550388,-0.0487 -0.808889,-0.0386 z m 0.169941,1.72924 c 0.311885,0 0.56501,0.25312 0.56501,0.565 0,0.31189 -0.253125,0.565 -0.56501,0.565 -0.311885,0 -0.565009,-0.25311 -0.565009,-0.565 0,-0.31188 0.253124,-0.565 0.565009,-0.565 z m -4.531109,19.20811 1.081463,2.7798 c -0.447071,0.0758 -0.924963,0.10763 -1.338586,0.20308 -0.309685,0.0715 -0.266699,0.0906 -0.548456,0.16657 l -1.082567,-3.05126 c 0.64268,0.0107 1.273928,-0.0192 1.888146,-0.0982 z"
         id="path2947"
         style="fill:url(#linearGradient3194);fill-opacity:1;stroke-width:0.264583" />
    </g>
  </g>
</svg>
